<?xml version="1.0" encoding="utf-8"?>
<svg width="18" height="18" viewBox="0 0 18 18" fill="#007bff" style="transform: rotate(90deg);" xmlns="http://www.w3.org/2000/svg">
  <mask id="moon-mask-cojl">
    <rect x="0" y="0" width="18" height="18" fill="#FFF"/>
    <circle cx="25" cy="0" r="8" fill="black"/>
  </mask>
  <circle cx="9" cy="9" fill="var(--color-text)" mask="url(#moon-mask-cojl)" r="5"/>
  <g>
    <circle cx="17" cy="9" r="1.5" fill="var(--color-text)" style="transform-origin: center center; transform: scale(1);"/>
    <circle cx="13" cy="15.928203230275509" r="1.5" fill="var(--color-text)" style="transform-origin: center center; transform: scale(1);"/>
    <circle cx="5.000000000000002" cy="15.92820323027551" r="1.5" fill="var(--color-text)" style="transform-origin: center center; transform: scale(1);"/>
    <circle cx="1" cy="9.000000000000002" r="1.5" fill="var(--color-text)" style="transform-origin: center center; transform: scale(1);"/>
    <circle cx="4.9999999999999964" cy="2.071796769724492" r="1.5" fill="var(--color-text)" style="transform-origin: center center; transform: scale(1);"/>
    <circle cx="13" cy="2.0717967697244912" r="1.5" fill="var(--color-text)" style="transform-origin: center center; transform: scale(1);"/>
  </g>
  <mask id="mask-1">
    <rect x="0" y="0" width="18" height="18" fill="#FFF"/>
    <circle cx="25" cy="0" r="8" fill="black"/>
  </mask>
  <circle cx="9" cy="9" fill="var(--color-text)" mask="url(#mask-1)" r="5" transform="matrix(1, 0, 0, 1, -5.620453, -19.105067)"/>
  <g transform="matrix(1, 0, 0, 1, -5.620453, -19.105067)">
    <circle cx="17" cy="9" r="1.5" fill="var(--color-text)" style="transform-origin: center center; transform: scale(1);"/>
    <circle cx="13" cy="15.928203230275509" r="1.5" fill="var(--color-text)" style="transform-origin: center center; transform: scale(1);"/>
    <circle cx="5.000000000000002" cy="15.92820323027551" r="1.5" fill="var(--color-text)" style="transform-origin: center center; transform: scale(1);"/>
    <circle cx="1" cy="9.000000000000002" r="1.5" fill="var(--color-text)" style="transform-origin: center center; transform: scale(1);"/>
    <circle cx="4.9999999999999964" cy="2.071796769724492" r="1.5" fill="var(--color-text)" style="transform-origin: center center; transform: scale(1);"/>
    <circle cx="13" cy="2.0717967697244912" r="1.5" fill="var(--color-text)" style="transform-origin: center center; transform: scale(1);"/>
  </g>
</svg>